<svg xmlns="http://www.w3.org/2000/svg" width="30.847" height="35" viewBox="0 0 30.847 35"><defs><style>.a{fill:#aaa;}</style></defs><path class="a" d="M24.619,35H6.229A6.235,6.235,0,0,1,0,28.771V23.432a1.483,1.483,0,0,1,2.966,0v5.339a3.269,3.269,0,0,0,3.263,3.263h18.39a3.269,3.269,0,0,0,3.263-3.263V6.229a3.269,3.269,0,0,0-3.263-3.263H6.229A3.269,3.269,0,0,0,2.966,6.229v5.339a1.483,1.483,0,1,1-2.966,0V6.229A6.235,6.235,0,0,1,6.229,0h18.39a6.235,6.235,0,0,1,6.229,6.229V28.771A6.235,6.235,0,0,1,24.619,35Z"/><path class="a" d="M20.763,29.966H1.483a1.483,1.483,0,0,1,0-2.966h19.28a1.483,1.483,0,0,1,0,2.966Z" transform="translate(0 -10.983)"/><path class="a" d="M21.982,32.2a1.477,1.477,0,0,1-1.05-.433,1.5,1.5,0,0,1,0-2.1L27,23.6l-6.069-6.069a1.485,1.485,0,1,1,2.1-2.1L30.15,22.55a1.5,1.5,0,0,1,0,2.1l-7.119,7.119a1.477,1.477,0,0,1-1.05.433Z" transform="translate(-8.338 -6.1)"/></svg>