<svg xmlns="http://www.w3.org/2000/svg" width="28.857" height="35.63" viewBox="0 0 28.857 35.63"><defs><style>.a{fill:#aaa;}</style></defs><g transform="translate(-0.005 0.021)"><g transform="translate(0.005 -0.021)"><path class="a" d="M24.832,29.573H4.035A4.033,4.033,0,0,1,.7,23.282l1.521-2.252a3.526,3.526,0,0,0,.6-1.986v-7.16A11.742,11.742,0,0,1,13.887-.008,11.621,11.621,0,0,1,26.045,11.6v7.444a3.526,3.526,0,0,0,.6,1.986l1.521,2.252a4.033,4.033,0,0,1-3.338,6.29ZM14.436,3.01h-.423A8.723,8.723,0,0,0,5.84,11.885v7.16a6.544,6.544,0,0,1-1.123,3.676L3.2,24.973a1,1,0,0,0-.054,1.044.984.984,0,0,0,.893.537h20.8a.984.984,0,0,0,.893-.537,1,1,0,0,0-.054-1.044L24.15,22.721a6.544,6.544,0,0,1-1.123-3.676V11.6A8.591,8.591,0,0,0,14.436,3.01Z" transform="translate(-0.005 0.021)"/><path class="a" d="M18.956,53.055a7.552,7.552,0,0,1-7.546-7.546,1.509,1.509,0,0,1,3.018,0,4.528,4.528,0,0,0,9.055,0,1.509,1.509,0,0,1,3.018,0,7.558,7.558,0,0,1-7.546,7.546Z" transform="translate(-4.525 -17.425)"/></g></g></svg>