<svg xmlns="http://www.w3.org/2000/svg" width="34.997" height="34.997" viewBox="0 0 34.997 34.997"><defs><style>.a{fill:#aaa;}</style></defs><g transform="translate(-0.074 -0.077)"><g transform="translate(0.074 0.077)"><path class="a" d="M17.552,35.074a17.5,17.5,0,1,1,12.39-5.12A17.5,17.5,0,0,1,17.552,35.074ZM17.552,3A14.54,14.54,0,1,0,27.839,7.254,14.54,14.54,0,0,0,17.552,3Z" transform="translate(-0.074 -0.077)"/><path class="a" d="M16.486,32.223A1.491,1.491,0,0,1,15.1,30.2l3.991-10.234a1.479,1.479,0,0,1,.843-.837L30.2,15.1a1.485,1.485,0,0,1,1.924,1.924L28.1,27.282a1.479,1.479,0,0,1-.843.837L17.027,32.111a1.438,1.438,0,0,1-.54.113Zm5.138-10.572L19.1,28.113l6.468-2.524L28.116,19.1Zm5.09,5.09Z" transform="translate(-6.136 -6.135)"/></g></g></svg>