<svg xmlns="http://www.w3.org/2000/svg" width="14.199" height="14.198" viewBox="0 0 14.199 14.198"><defs><style>.a{fill:#aaa;}</style></defs><g transform="translate(0.003 0.003)"><g transform="translate(-0.003 -0.003)"><path class="a" d="M.648,14.2a.643.643,0,0,1-.457-.188.65.65,0,0,1,0-.914L13.1.186a.646.646,0,1,1,.914.914L1.105,14.007A.643.643,0,0,1,.648,14.2Z" transform="translate(-0.002 0.003)"/><path class="a" d="M13.55,14.2a.643.643,0,0,1-.457-.188L.186,1.1A.646.646,0,0,1,1.1.186L14.007,13.093a.65.65,0,0,1,0,.914A.643.643,0,0,1,13.55,14.2Z" transform="translate(0.003 0.003)"/></g></g></svg>