<svg xmlns="http://www.w3.org/2000/svg" width="36.003" height="35.339" viewBox="0 0 36.003 35.339"><defs><style>.a{fill:#3953dc;}</style></defs><g transform="translate(-0.025)"><g transform="translate(0.025 0)"><path class="a" d="M1.537,19.544a1.527,1.527,0,0,1-1.081-2.59L16.946.464A1.533,1.533,0,0,1,18.009,0h0A1.533,1.533,0,0,1,19.09.446l16.49,16.49A1.529,1.529,0,1,1,33.418,19.1L18.009,3.665,2.618,19.111A1.527,1.527,0,0,1,1.537,19.544Z" transform="translate(-0.025 0)"/><path class="a" d="M28.1,43.151H13.382A6.407,6.407,0,0,1,7,36.744V21.6a1.527,1.527,0,1,1,3.054,0V36.744A3.353,3.353,0,0,0,13.407,40.1H28.126a3.353,3.353,0,0,0,3.3-3.353V21.6a1.527,1.527,0,1,1,3.054,0V36.744A6.407,6.407,0,0,1,28.1,43.151Z" transform="translate(-2.74 -7.812)"/><path class="a" d="M30.078,41.523H21.527A1.521,1.521,0,0,1,20,40V35.812a5.8,5.8,0,1,1,11.6,0V40a1.521,1.521,0,0,1-1.527,1.527Zm-7.024-3.054h5.5V35.812a2.748,2.748,0,1,0-5.5,0Z" transform="translate(-7.8 -11.681)"/></g></g></svg>